<!-- icon666.com - MILLIONS vector ICONS FREE --><svg viewBox="0 0 48 48" xmlns="http://www.w3.org/2000/svg"><g id="Layer_29" data-name="Layer 29"><path d="m24 1-23 23h6v23h34v-23h6z" fill="#e1f1fc"></path><path d="m10 42v-19a2 2 0 0 0 -2-2h-4l-3 3h6v23h34v-3h-29a2 2 0 0 1 -2-2z" fill="#bfdeef"></path><path d="m13 37h12a0 0 0 0 1 0 0v8a2 2 0 0 1 -2 2h-8a2 2 0 0 1 -2-2v-8a0 0 0 0 1 0 0z" fill="#bcbcbc"></path><path d="m18 44a2 2 0 0 1 -2-2v-5h-3v8a2 2 0 0 0 2 2h8a2 2 0 0 0 2-2v-1z" fill="#a8a8a8"></path><path d="m35 37h-4l-2 10h8z" fill="#efd460"></path><path d="m31 37-2 10h3l2-10z" fill="#e2c54b"></path><path d="m33 19a2 2 0 0 1 2 2v18a0 0 0 0 1 0 0h-4a0 0 0 0 1 0 0v-18a2 2 0 0 1 2-2z" fill="#bcbcbc"></path><path d="m47.707 23.293-23-23a1 1 0 0 0 -1.414 0l-23 23a1 1 0 0 0 .707 1.707h5v22a1 1 0 0 0 1 1h34a1 1 0 0 0 1-1v-22h5a1 1 0 0 0 .707-1.707zm-32.707 22.707a1 1 0 0 1 -1-1v-7h7a1 1 0 0 0 0-2h-7v-1a3 3 0 0 1 3-3h4a3 3 0 0 1 3 3v10a1 1 0 0 1 -1 1zm19-10h-2v-15a1 1 0 0 1 2 0zm-3.78 10 1.6-8h2.362l1.6 8zm10.78-23a1 1 0 0 0 -1 1v22h-2.18l-1.82-9.1v-15.9a3 3 0 0 0 -6 0v15.9l-1.82 9.1h-2.364a2.966 2.966 0 0 0 .184-1v-7h1a1 1 0 0 0 0-2h-1v-1a5.006 5.006 0 0 0 -5-5h-4a5.006 5.006 0 0 0 -5 5v1h-1a1 1 0 0 0 0 2h1v7a2.966 2.966 0 0 0 .184 1h-4.184v-22a1 1 0 0 0 -1-1h-3.586l20.586-20.586 20.586 20.586z"></path></g></svg>